<?xml version="1.0" encoding="UTF-8"?>
<svg width="1440px" height="1024px" viewBox="0 0 1440 1024" version="1.1" xmlns="http://www.w3.org/2000/svg" xmlns:xlink="http://www.w3.org/1999/xlink">
    <!-- Generator: Sketch 63.1 (92452) - https://sketch.com -->
    <title>Home</title>
    <desc>Created with Sketch.</desc>
    <defs>
        <path d="M1290.89739,797.840558 C1227.59942,915.22254 1146.46293,1010.73925 1047.48793,1084.39069 C948.512923,1158.04213 835.152016,1199.47106 707.405208,1208.67749 C579.658399,1217.88392 476.079906,1174.72878 396.669727,1079.21207 C317.259549,983.695362 228.066958,883.575437 129.091953,778.852296 C30.116948,674.129155 -11.8898855,538.334314 3.07145247,371.467771 C18.0327904,204.601228 112.404307,118.866349 286.186001,114.263134 C459.967696,109.659919 610.156511,82.6160311 736.752447,33.1314701 C863.348384,-16.3530909 999.151297,-8.87286656 1144.16119,55.5721431 C1289.17108,120.017153 1365.70408,230.494312 1373.76018,387.003621 C1381.81629,543.51293 1354.19536,680.458576 1290.89739,797.840558 Z" id="path-1"></path>
    </defs>
    <g id="Home" stroke="none" stroke-width="1" fill="none" fill-rule="evenodd">
        <g id="Group" transform="translate(738.000000, 512.000000)" fill="#4338CA" fill-rule="nonzero">
            <path d="M826.962144,484.926292 C805.324989,580.08164 747.625907,636.3098 653.864898,653.610772 C560.10389,670.911745 475.718983,682.085289 400.710176,687.131406 C325.70137,692.177523 253.216898,675.236988 183.256761,636.3098 C113.296624,597.382612 61.3674503,538.631394 27.4692397,460.056144 C-6.42897099,381.480895 -8.95330582,301.103461 19.8962352,218.923842 C48.7457761,136.744224 100.67495,77.6325682 175.683756,41.5888758 C250.692563,5.54518344 324.619512,-7.07010889 397.464603,3.74299882 C470.309694,14.5561065 541.351688,35.821885 610.590587,67.5403343 C679.829485,99.2587836 738.610425,152.963885 786.933406,228.655639 C835.256387,304.347393 848.5993,389.770944 826.962144,484.926292 Z" id="blob"></path>
        </g>
        <g id="Group" transform="translate(411.036930, 749.422638) rotate(38.000000) translate(-411.036930, -749.422638) translate(-276.963070, 144.422638)">
            <mask id="mask-2" fill="white">
                <use xlink:href="#path-1"></use>
            </mask>
            <use id="blob" fill="#6366F1" fill-rule="nonzero" xlink:href="#path-1"></use>
        </g>
    </g>
</svg>