<?xml version="1.0" encoding="UTF-8"?>
<svg width="753px" height="1126px" viewBox="0 0 753 1126" version="1.1" xmlns="http://www.w3.org/2000/svg" xmlns:xlink="http://www.w3.org/1999/xlink">
    <!-- Generator: Sketch 63.1 (92452) - https://sketch.com -->
    <title>CoffeeGreg</title>
    <desc>Created with Sketch.</desc>
    <g id="Page-1" stroke="none" stroke-width="1" fill="none" fill-rule="evenodd">
        <g id="Artboard" transform="translate(-1020.000000, -138.000000)">
            <g id="CoffeeGreg" transform="translate(1020.000000, 138.000000)">
                <path d="M397.178,410.935 C373.519,391.497 314.122,382.755 288.871,401.472 C263.931,420.266 261.212,450.66 249.59,478.62 C238.624,473.041 220.516,481.031 217.337,492.009 C213.394,497.187 213.217,511.734 210.498,518.695 C92.187,539.014 74.2249,638.535 59.9845,751.519 C41.1455,866.169 -1.62082,980.57 16.945,1098.55 C14.5259,1102.32 12.6186,1105.99 10.8551,1110.35 C6.6294,1118.11 12.0723,1129.09 20.5957,1128.67 C31.6282,1127.62 42.5515,1126.19 53.6358,1125.75 C84.363,1124.6 115.118,1124.73 145.857,1125.16 L150.049,1125.21 C304.963,1127.3 459.87,1131.4 614.791,1132.48001 C620.411,1132.49 623.163,1127.05 622.412,1121.69 C620.901,1110.89 619.499,1100.08 618.035,1089.27 C654.678,1099.72 693.633,1102.34 730.172,1090.37 C732.728,1087.56 724.216,1089.09 722.866,1088.66 C756.494,1063.87 746.451,1011.64 743.472,974.02 C724.95,845.116 718.42,702.495 646.854,592.5 C615.894,547.612 570.504,512.072 518.347,504.075 L516.9,503.862 C501.649,501.668 484.652,500.961 471.318,492.009 C456.321,479.092 449.93,455.224 434.153,455.001 C428.943,454.927 421.856,462.038 414.23,466.866 C413.66,456.245 408.356,447.282 407.184,439.047 L407.089,438.343 C405.867,428.742 407.541,420.105 397.178,410.935 Z M142.917,754.924 C176.165,730.003 262.054,742.525 264.02,743.92 C268.349,746.993 270.213,747.264 272.555,751.254 C274.867,751.585 277.176,751.928 279.484,752.282 C284.114,753.914 280.683,760.058 275.335,757.866 C278.552,772.834 269.085,783.479 265.317,798.276 C264.093,803.081 265.273,811.722 265.317,816.631 C264.951,822.89 258.537,830.284 259.606,836.564 C263.407,858.889 284.03,880.667 275.335,902.318 C269.575,914.546 252.25,920.782 240.732,924.939 C216.868,934.821 175.287,924.567 161.421,902.318 C154.025,890.451 145.457,860.516 141.047,851.231 L140.07,836.501 C137.659,799.887 135.515,760.472 142.917,754.924 Z" id="Shape"></path>
                <path d="M440.946,452.842 C438.65,450.649 435.254,453.405 436.713,456.367 C439.99,463.026 443.353,469.335 447.752,475.221 C450.419,478.79 453.276,482.165 456.172,485.503 C448.741,492.439 442.368,501.05 436.35,509.12 C428.655,519.441 421.379,530.2 412.741,539.645 C404.222,548.959 394.802,555.47 383.412,559.812 L381.112,560.674 C369.67,565.008 357.44,570.861 350.991,582.55 C349.719,584.855 352.28,587.703 354.433,586.264 C365.64,578.777 378.808,577.272 391.007,572.324 C402.791,567.546 413.063,560.191 422.14,550.805 C431.201,541.434 438.809,530.772 446.744,520.336 C454.592,510.017 463.042,501.203 472.324,492.472 C486.648,502.869 502.999,507.393 519.625,511.837 L521.44,512.322 C538.086,516.768 554.643,521.933 570.26,529.676 C584.029,536.502 597.571,544.654 608.787,555.762 C620.693,567.551 629.959,582.608 638.44,597.332 C657.411,630.275 670.749,666.365 682.491,702.893 C694.703,740.888 704.918,779.645 713.165,818.861 C717.359,838.809 720.765,858.898 723.564,879.128 C724.912,888.872 726.109,898.636 727.161,908.421 C728.283,918.871 728.541,929.622 731.512,939.67 C732.786,943.97 735.793,945.76 738.804,945.61 L739.415,953.86 C740.226,964.86 740.982,975.87 741.237,986.93 C741.661,1005.34 741.469,1023.69 740.242,1042.06 L740.068,1044.56 C739.104,1057.97 736.949,1073.03 727.607,1082.84 C717.933,1093.01 703.055,1096.2 690.015,1096.39 C659.645,1096.81 630.411,1081.33 603.537,1067.75 C575.859,1053.76 548.938,1038.23 522.661,1021.39 C509.279,1012.82 496.043,1003.96 482.974,994.84 C476.561,990.36 470.194,985.81 463.874,981.18 C460.254,978.53 456.823,975.63 453.138,973.28 C454.944,971.46 455.75,968.61 454.237,966.12 C464.891,956.14 469.324,938.34 469.843,923.934 C470.262,912.306 468.675,900.71 467.424,889.191 C466.792,883.383 466.012,877.584 465.202,871.802 C464.882,869.517 464.637,867.074 464.264,864.662 C493.029,881.718 522.601,896.907 552.955,910.401 C568.515,917.318 584.273,923.537 600.249,929.236 L603.487,930.385 C618.625,935.73 634.125,940.78 649.774,943.84 C650.61,944 651.29,942.67 650.397,942.24 C635.146,934.983 619.367,928.859 603.888,922.173 L601.344,921.055 L601.344,921.055 C601.636,921.038 601.939,920.994 602.255,920.912 C611.334,918.548 620.341,914.905 629.245,911.838 C637.509,908.991 646.793,907.203 654.517,902.906 C655.111,902.575 654.779,901.683 654.2,901.641 C645.518,900.991 636.094,903.721 627.582,905.327 L624.384,905.932 C619.028,906.951 613.552,908.046 608.222,909.475 C608.029,907.549 607.031,905.614 605.612,904.479 C589.992,891.999 591.578,866.792 589.908,848.204 L588.669,834.403 C586.49,810.252 584.185,786.103 580.683,762.132 C580.496,760.852 578.661,761.219 578.653,762.428 C578.472,792.142 580.551,821.72 581.593,851.388 L581.755,856.255 C582.331,874.562 582.782,893.571 593.468,907.657 C591.974,906.715 589.954,906.715 588.743,908.268 C587.256,910.178 586.397,912.323 586.424,914.428 C576.768,910.059 567.154,905.578 557.587,901.005 C526.827,886.302 496.713,869.848 467.396,852.045 C464.241,850.129 461.242,851.635 459.681,854.161 L459.456,854.126 C459.419,854.121 459.38,854.117 459.341,854.116 L459.118,854.105 C459.109,854.105 459.101,854.106 459.093,854.106 C454.966,851.66 449.344,853.402 445.802,856.971 C445.698,857.078 445.609,857.194 445.516,857.308 C441.032,855.136 436.846,852.204 433.047,848.489 C425.272,840.886 418.686,831.485 412.945,822.058 C402.373,804.696 393.392,785.388 379.111,771.096 C367.507,759.484 353.121,752.254 338.028,747.716 C338.091,747.24 337.923,746.733 337.618,746.396 C336.843,745.539 336.29,745.242 335.288,745.762 C335.208,745.805 335.161,745.862 335.128,745.925 L333.655,743.21 C332.851,741.736 332.026,740.252 331.74,739.863 C330.026,737.535 328.263,735.225 326.472,732.963 C323.437,729.134 319.978,725.355 315.973,722.7 C307.203,716.887 297.984,720.176 288.968,723.353 C283.52,725.273 278.091,727.256 272.652,729.205 L272.091,729.403 C268.036,730.808 263.291,732.038 261.478,736.673 C260.76,738.508 260.649,740.412 260.983,742.259 C222.47,731.691 179.693,736.546 142.11,748.951 C140.667,749.427 139.227,750.707 138.923,752.389 C134.617,776.215 132.699,800.65 134.647,824.883 C136.328,845.801 140.624,866.3 148.719,885.451 L149.179,886.532 C156.787,904.28 168.844,926.158 187.259,931.721 C198.378,935.08 210.675,933.099 222.015,932.484 C233.036,931.885 244.302,931.798 255.218,929.929 C264.941,928.264 273.459,923.562 279.468,915.032 C284.651,907.674 287.381,898.781 289.617,889.934 C290.64,890.285 291.657,890.659 292.658,891.082 C296.882,892.861 300.46,895.734 303.696,899.115 C310.529,906.254 315.829,914.925 322.978,921.738 C329.449,927.905 336.823,932.701 344.733,936.39 C361.124,944.03 378.707,947.08 396.045,951.13 L397.254,951.42 C410.306,954.51 423.628,958.3 435.148,965.63 C435.374,967.79 436.285,969.82 437.746,971.15 C435.714,973.21 434.853,976.47 436.639,979.53 C441.626,988.07 450.217,992.93 457.93,998.39 L458.432,998.75 C466.019,1004.18 473.672,1009.49 481.387,1014.71 C497.072,1025.3 513.084,1035.31 529.323,1044.88 C555.442,1060.28 582.121,1074.8 609.283,1087.97 C607.652,1096.63 608.248,1105.55 607.023,1114.26 L606.835,1115.51 C606.311,1118.74 607.018,1121.44 609.082,1123.56 L609.301,1123.77 L609.297,1123.74 L609.491,1123.93 L609.555,1123.99 L609.534,1123.98 C609.772,1124.21 610.017,1124.43 610.267,1124.62 L610.586,1124.84 L610.586,1124.84 C612.574,1126.14 615.134,1126.13 617.169,1124.98 L617.401,1124.84 L617.793,1124.6 C620.482,1122.93 622.336,1118.79 621.221,1115.51 C618.479,1107.43 617.443,1098.81 614.911,1090.69 L616.919,1091.66 L616.919,1091.66 L619.567,1092.9 C648.203,1106.26 680.012,1117.51 711.213,1108.4 C724.999,1104.38 737.884,1095.86 744.782,1081.98 C751.57,1068.33 752.529,1052.47 752.89,1037.28 C753.334,1018.53 752.403,999.49 750.111,980.91 C748.573,968.43 746.713,955.72 743.843,943.37 C745.319,941.96 746.404,939.95 746.691,937.45 C748.045,925.657 745.675,913.395 744.224,901.663 C742.806,890.207 741.24,878.774 739.469,867.376 C735.893,844.358 731.738,821.388 726.901,798.64 C718.292,758.154 706.924,718.387 693.238,679.571 L692.039,676.19 C679.392,640.711 664.749,605.989 644.358,574.821 C634.604,559.909 624.294,546.389 610.511,535.644 C597.599,525.576 583.035,518.327 568.005,512.786 C552.958,507.241 537.493,503.526 521.754,501.214 C505.771,498.867 488.899,497.427 473.989,490.354 C475.875,486.706 474.256,481.78 471.082,479.518 C460.399,471.903 450.521,461.996 440.946,452.842 Z M97.971,783.984 C97.523,783.251 96.46,783.714 96.657,784.582 C101.852,807.548 106.73,830.561 109.915,853.966 C115.664,896.209 114.606,939 114.136,981.56 L114.113,983.76 C113.871,1006.68 113.536,1029.61 112.833,1052.52 C112.479,1064.1 111.777,1075.79 112.158,1087.38 C112.366,1093.66 113.919,1099.61 114.469,1105.82 C114.951,1111.25 114.522,1116.76 114.281,1122.2 C114.12,1125.81 119.066,1125.66 119.402,1122.2 L119.832,1117.72 C120.391,1112.06 121.082,1106.43 122.803,1101 C124.872,1094.48 125.865,1088.08 126.583,1081.23 C127.683,1070.73 128.171,1060.14 128.596,1049.57 L128.886,1042.26 C130.658,998.1 130.596,953.73 127.727,909.617 L127.517,906.466 C124.677,864.767 119.747,819.712 97.971,783.984 Z M208.723,521.17 C210.08,520.568 209.604,518.354 208.102,518.74 L205.369,519.443 C185.342,524.619 165.68,530.226 146.988,539.856 C128.284,549.492 112.449,563.877 99.866,581.567 C75.4071,615.952 65.2429,657.74 57.2189,699.489 C48.3016,745.88 40.1827,792.44 31.1878,838.817 L29.5175,847.455 C21.1944,890.649 13.3362,933.868 7.5461,977.57 L7.1301,980.74 C1.2912,1025.69 -2.22095,1072.19 4.1503,1117.25 C5.4107,1126.16 19.1604,1123.94 18.6227,1115.14 C17.07,1089.67 15.9583,1064.34 17.0327,1038.82 C18.108,1013.3 20.3268,987.89 23.6344,962.58 C26.4178,941.29 30.5671,920.264 34.239,899.141 L34.8145,895.805 C37.8892,877.839 41.0589,859.891 44.2217,841.941 L48.9481,815.067 C56.0319,774.827 63.2543,734.552 71.4152,694.564 L71.8996,692.211 C79.886,653.741 91.66,613.442 115.616,582.893 C139.927,551.889 174.729,536.275 208.723,521.17 Z M297.059,929.225 C296.474,927.82 294.429,927.974 293.8,929.225 C291.337,934.129 291.063,940.39 290.597,945.93 L290.548,946.5 C289.956,953.25 289.431,960.03 289.11,966.81 C288.502,979.67 288.21,992.52 288.248,1005.4 C288.286,1018.6 288.532,1031.78 289.192,1044.96 L289.371,1048.49 C289.973,1059.94 290.982,1072.72 296.026,1082.73 C297.86,1086.37 302.847,1085.3 303.909,1081.62 C307.388,1069.57 305.601,1055.28 304.709,1042.93 L304.016,1033.3 C303.33,1023.67 302.676,1014.03 302.157,1004.38 C301.445,991.19 300.859,977.98 300.294,964.78 C300.111,960.49 299.913,956.2 299.703,951.91 L299.381,945.48 C299.106,940.1 299.129,934.198 297.059,929.225 Z M688.242,946.31 L686.702,944.7 C681.974,939.71 675.999,932.022 669.01,932.499 C666.223,932.689 664.447,935.19 665.025,938.14 C666.259,944.47 672.239,947.75 676.543,951.61 C681.259,955.84 685.703,960.36 690.138,964.92 C694.074,968.97 697.858,973.13 701.552,977.42 L702.933,979.04 C704.257,980.6 713.685,989.8 712.665,992.19 L712.61,992.29 C712.326,992.75 712.799,993.38 713.269,993.22 C717.341,991.83 717.087,988.07 715.547,984.25 C712.59,976.92 707.41,970.14 702.888,963.88 C698.377,957.64 693.495,951.82 688.242,946.31 L688.242,946.31 Z M282.305,762.493 C285.454,754.464 297.052,754.633 303.636,755.113 C320.217,756.321 338.157,760.848 352.91,769.209 C368.206,777.878 378.509,791.768 387.727,807.128 L388.159,807.849 C397.144,822.919 405.798,840.758 419.868,851.12 C427.034,856.399 435.402,861.219 444.097,863.307 C444.694,864.439 445.661,865.336 446.929,865.661 L447.518,865.807 C449.995,866.397 453.842,867.05 457.165,866.659 C457.143,868.413 457.16,870.153 457.119,871.815 C457.002,876.577 456.952,881.36 456.952,886.125 C456.95,896.109 457.448,906.113 457.062,916.097 C456.719,924.927 455.564,934.153 451.634,942.05 C448.752,947.84 444.948,951.67 440.356,955.33 C429.06,947.9 416.287,943.37 403.323,939.97 C387.645,935.85 371.592,933.104 356.271,927.522 C348.896,924.835 341.807,921.318 335.383,916.541 C328.566,911.469 323.359,904.607 318.001,897.894 L317.164,896.851 C311.696,890.085 305.73,883.611 298.003,879.943 C291.348,876.783 282.578,876.22 276.759,871.331 C273.717,868.773 273.462,865.06 273.142,861.259 C276.868,861.834 280.813,860.913 284.527,860.443 L286.451,860.199 C289.963,859.749 293.394,859.254 296.852,858.29 C297.494,858.111 297.494,857.067 296.852,856.888 C292.766,855.749 288.716,855.264 284.527,854.735 L283.543,854.603 C279.753,854.066 275.77,853.257 272.052,854.157 C271.385,851.419 270.422,848.804 269.07,846.186 C267.174,842.508 263.584,838.337 263.099,834.04 C262.955,832.757 263.232,831.244 263.792,830.11 L263.985,829.723 C264.221,829.266 264.5,828.807 264.909,828.522 C264.954,828.579 265.05,828.645 265.258,828.715 C268.119,829.687 270.614,828.176 271.939,825.847 C277.562,826.6 283.699,826.347 288.972,826.598 L294.304,826.876 C300.001,827.158 305.957,827.281 311.31,826.04 C312.058,825.867 312.284,824.525 311.536,824.179 C304.954,821.142 296.97,820.173 289.924,819.007 C285.989,818.354 282.025,817.858 278.078,817.284 C275.45,816.901 272.661,816.269 269.938,816.117 C263.111,806.948 266.789,792.483 276.29,788.535 C279.751,790.176 282.863,789.221 286.644,788.871 C290.418,788.521 294.202,788.285 297.992,788.302 C305.586,788.338 313.633,790.493 321.153,789.566 C322.376,789.414 323.512,787.658 322.296,786.587 C316.54,781.518 308.29,779.866 300.983,778.786 L299.469,778.567 C297.019,778.221 294.04,777.715 290.95,777.414 C290.252,775.944 288.998,774.832 287.115,774.556 C286.555,774.473 285.992,774.424 285.431,774.373 L285.439,774.313 L285.439,774.313 C280.847,774.075 281.046,765.705 282.305,762.493 Z M596.738,919.082 C596.819,919.217 596.908,919.346 597.003,919.47 L597.148,919.652 L596.393,919.321 L596.738,919.082 L596.738,919.082 Z M202.159,744.552 C221.491,742.311 240.85,742.784 260.239,743.386 C261.79,748.858 267.188,753.522 272.418,753.698 C268.322,760.425 267.899,769.529 270.772,776.663 C264.673,779.283 259.419,783.988 256.229,790.689 C251.806,799.978 252.385,810.315 256.756,818.9 C253.025,822.544 250.824,828.463 251.044,834.041 C251.29,840.261 254.726,845.574 257.582,850.724 C260.667,856.293 260.77,861.197 261.718,867.435 C263.105,876.564 268.812,882.1 276.154,885.559 L275.764,887.215 C273.871,895.165 271.515,903.554 266.105,909.368 C259.145,916.847 248.347,916.777 239.152,917.251 L238.708,917.274 C230.288,917.729 221.871,918.261 213.453,918.775 L207.14,919.157 C197.448,919.731 188.141,919.801 180.229,912.888 C167.312,901.604 158.457,882.929 152.852,866.397 C141.089,831.696 140.948,793.615 146.347,757.476 C164.457,751.178 183.247,746.745 202.159,744.552 Z M362.926,802.122524 L362.784,802.133 C358.803,802.624 356.069,806.101 355.095,810.226 C353.68,816.222 354.374,821.643 350.971,827.055 C347.47,832.621 345.317,837.077 344.808,843.953 C344.599,846.782 344.695,849.604 344.111,852.373 L343.688,854.314 C343.239,856.382 342.871,858.375 343.095,860.596 C343.299,862.622 344.213,864.2 346.096,864.85 C352.233,866.968 356.972,862.089 358.557,855.918 C359.927,850.588 358.098,844.237 360.03,839.232 C361.101,836.457 363.075,834.137 364.191,831.344 C365.296,828.575 365.851,825.683 366.028,822.674 C366.364,816.982 361.699,810.144 364.302,804.987 C364.856,803.886 364.228,802.089 362.926,802.122524 Z M444.443,743.387 C440.288,742.476 435.573,740.388 431.475,742.124 C429.368,743.017 428.327,745.788 430.107,747.715 C433.197,751.057 437.688,751.243 441.851,752.031 L442.217,752.103 C447.138,753.085 452.069,754.017 457.006,754.9 C466.294,756.56 475.604,758.027 484.947,759.274 C494.543,760.555 504.165,761.696 513.801,762.554 L517.532,762.885 C525.672,763.587 534.141,764.117 542.128,762.771 C543.289,762.576 543.102,760.753 542.128,760.433 C533.378,757.576 523.781,756.81 514.735,755.601 C505.118,754.314 495.517,752.954 485.942,751.34 C476.381,749.729 466.833,748 457.321,746.089 C453.021,745.227 448.729,744.326 444.443,743.387 Z M294.492,734.213 C298.139,732.82 302.151,730.756 306.102,731.447 C312.917,732.638 318.982,739.802 324.376,744.519 L321.667,743.951 C307.809,741.077 289.457,737.981 277.824,747.488 C277.794,747.433 277.771,747.379 277.737,747.324 C276.798,745.785 275.71,744.584 274.523,743.268 C274.409,743.152 274.3,743.033 274.192,742.912 L273.551,742.176 L275.016,741.628 C278.155,740.431 281.873,738.885 282.461,738.66 L282.502,738.644 C286.503,737.182 290.51,735.737 294.492,734.213 Z M408.356,420.803 C408.926,412.889 397.51,412.954 396.944,420.803 C395.711,437.938 399.285,454.911 406.977,469.933 C407.034,470.043 407.096,470.14 407.156,470.244 C402.344,472.945 397.478,475.536 392.504,477.853 C386.141,480.816 379.658,483.515 373.059,485.805 C367.09,487.877 359.736,488.695 354.718,493.007 C344.136,502.099 348.111,520.967 350.147,533.198 L350.465,535.128 C351.478,541.422 352.211,547.879 349.752,553.919 C347.126,560.371 341.815,565.157 337.078,569.773 L336.121,570.709 C331.924,574.834 327.128,579.847 324.05,585.44 C321.24,579.171 317.409,574.048 313.358,568.281 C310.469,564.165 312.525,562.808 314.601,558.788 C316.6,554.918 317.575,550.793 316.951,546.378 C315.798,538.226 309.758,532.336 303.747,527.911 C296.648,522.688 288.725,518.819 281.386,513.959 C266.306,503.976 251.62,492.562 238.389,479.885 C238.023,479.534 237.391,479.993 237.683,480.472 C248.135,497.625 260.39,512.446 275.452,525.027 C281.56,530.129 287.975,534.36 294.434,538.808 L296.291,540.094 C298.884,541.907 302.118,544.329 303.291,547.415 C304.471,550.518 301.955,552.861 300.601,555.432 C296.3,563.596 298.375,571.213 303.473,578.136 L303.711,578.455 C308.777,585.191 312.617,591.456 314.453,600.062 C318.399,618.548 312.903,637.804 307.15,655.159 L306.922,655.843 C303.81,665.198 300.503,674.484 297.799,683.989 L297.055,686.616 C294.605,695.361 292.599,703.987 295.347,712.977 C296.282,716.034 300.147,716.757 301.753,713.879 C307.416,703.731 308.828,691.518 312.378,680.36 C315.838,669.485 319.811,658.807 323.153,647.888 C327.456,633.829 330.336,618.696 328.773,603.95 C328.819,603.864 328.87,603.784 328.908,603.693 L330.003,601.107 C332.991,594.107 335.876,587.993 341.308,582.413 C346.975,576.592 353.125,571.439 357.583,564.393 C367.268,549.087 361.279,532.06 360.109,515.324 L359.975,513.272 C359.762,509.797 359.646,505.075 361.75,502.67 C364.116,499.963 369.665,499.272 372.805,498.073 C380.919,494.975 388.916,491.365 396.531,487.03 C403.781,482.904 410.803,478.346 417.342,473.006 L420.656,470.316 C425.885,466.059 431.307,461.411 434.811,455.616 C435.216,454.949 434.529,453.873 433.796,454.192 C427.946,456.754 422.601,460.828 417.127,464.373 C417.042,464.157 416.943,463.939 416.831,463.719 C410.059,450.495 407.274,435.844 408.356,420.803 Z M221.477,511.406 C219.146,504.51 208.522,505.042 208.946,513.237 C209.271,519.532 211.748,525.214 214.013,530.93 L214.255,531.542 C216.593,537.498 219.294,543.089 222.526,548.547 C228.701,558.981 235.935,568.665 243.661,577.803 C250.665,586.088 259.858,591.154 270.452,590.313 C274.915,589.958 279.421,588.732 283.332,586.327 C287.978,583.469 293.023,574.887 298.95,576.965 C299.523,577.166 300.058,576.26 299.562,575.831 C292.72,569.886 284.954,579.104 278.403,581.325 C268.532,584.671 258.402,580.972 252.049,572.362 C245.415,563.372 239.31,553.307 233.735,543.519 C230.904,538.549 228.321,533.391 226.09,528.075 C223.838,522.709 223.326,516.878 221.477,511.406 Z M237.388,468.964 C237.676,468.012 236.579,467.106 235.804,467.65 C231.308,470.808 227.412,474.981 223.264,478.638 C218.663,482.696 214.028,486.671 209.321,490.585 C202.46,496.293 210.418,506.799 216.458,500.564 C224.723,492.036 233.776,480.884 237.388,468.964 Z M262.072,435.584 C260.246,427.985 249.443,431.118 251.017,438.629 L251.069,438.858 C254.05,451.264 249.804,463.894 240.738,471.936 L240.404,472.228 C234.669,477.181 242.795,485.838 248.473,480.934 C260.871,470.228 266.028,452.044 262.072,435.584 Z" id="Shape" fill="#100D06"></path>
                <path d="M170.679,247.37 C172.742,227.81 170.072,186.926 169.893,184.442 C168.762,168.739 175.582,106.731 188.473,112.445 C210.097,93.975 238.899,89.896 265.831,87.948 C321.772,83.9 381.284,93.192 424.481,133.811 C445.843,154.906 466.64,185.587 464.969,217.532 C484.378,247.813 511.74,289.35 487.557,324.75 C479.337,336.06 466.272,340.272 455.946,348.838 C435.175,366.914 422.144,392.855 401.176,410.824 C345.625,464.683 251.298,475.934 196.719,414.674 C154.514,370.307 161.339,303.932 168.762,247.37 C173.753,209.344 166.654,285.53 170.679,247.37 Z" id="Path"></path>
                <path d="M340.561,4.9996 C325.6,1.7422 310.237,-0.2847 294.959,0.3254 L293.781,0.3748 C282.285,0.8705 267.727,1.9671 257.699,9.1794 C257.122,8.5548 256.194,8.2343 255.352,8.6676 C243.435,14.805 230.328,19.2423 217.78,23.6517 C205.289,28.0394 192.331,30.9359 179.24,32.1034 C174.315,32.5429 170.1,38.281 173.218,43.428 C173.96,44.654 174.683,45.893 175.403,47.135 C174.199,47 172.995,46.86 171.791,46.729 C167.83,46.299 163.873,50.86 164.107,55.021 C164.254,57.639 164.516,60.225 164.903,62.78 C163.394,62.746 161.894,62.99 160.445,63.651 C153.107,66.994 153.618,76.424 154.167,83.599 C154.928,93.555 158.38,104.101 164.788,111.553 C160.003,116.914 156.616,123.318 154.596,130.922 C153.13,136.475 152.315,142.391 152.717,148.171 L152.846,149.902 C153.343,156.175 154.333,163.12 158.516,167.633 C160.663,169.96 163.308,170.808 165.83,170.539 C164.305,184.996 163.327,199.535 162.407,214.023 L161.976,220.947 C159.923,254.432 158.381,288.134 158.784,321.673 C159.159,353.017 164.899,383.44 182.716,408.889 C198.944,432.063 222.242,449.147 248.599,455.641 C262.803,459.147 277.304,459.395 291.681,457.161 C298.65,456.075 305.664,454.41 312.279,451.784 C319.6,448.868 324.862,444.576 329.788,438.144 C332.118,435.093 330.997,428.599 326.357,429.209 C319.34,430.127 312.934,431.234 306.207,433.473 L305.244,433.801 C298.543,436.117 291.604,437.844 284.599,438.578 C270.25,440.078 255.683,438.568 241.938,433.873 C219.559,426.221 200.284,409.168 187.93,387.742 C173.266,362.344 171.608,333.513 171.82,304.31 C172.047,272.265 173.013,240.201 174.59,208.189 L174.858,202.855 C175.692,186.381 176.497,169.898 177.205,153.414 C177.426,148.244 177.761,143.032 178.366,137.872 C183.895,134.376 188.85,129.557 192.08,123.611 C198.569,126.507 205.393,128.596 211.672,130.261 C226.215,134.12 241.314,135.057 256.117,132.64 C260.11,134.42 264.182,135.984 268.317,137.331 C269.435,137.865 270.552,138.391 271.669,138.906 C281.637,143.507 291.749,147.406 302.272,150.26 L304.857,150.956 C310.394,152.428 316.409,153.879 322.303,154.334 C323.271,154.738 324.316,155.079 325.457,155.379 C330.823,156.785 336.393,157.23 341.893,156.734 C347.252,156.248 351.124,150.405 348.172,144.934 C346.015,140.943 343.839,136.961 341.644,132.991 C349.283,136.424 357.171,139.278 365.126,141.698 C373.157,144.138 381.304,146.196 389.461,148.088 C393.822,149.092 398.201,149.981 402.553,150.984 C405.668,151.697 410.45,152.07 412.991,154.283 C415.798,156.713 416.594,162.38 417.659,165.875 C419.058,170.415 420.371,174.975 421.569,179.587 C423.954,188.791 425.91,198.129 427.424,207.56 C428.938,217.001 429.955,226.536 430.521,236.101 C431.085,245.656 430.837,255.273 431.747,264.787 C432.236,269.833 437.258,272.429 440.967,268.903 C441.402,268.489 441.84,268.071 442.275,267.648 L442.922,267.01 C446.095,263.908 449.172,260.62 451.711,256.917 C452.171,256.235 452.612,255.521 453.024,254.798 C453.091,254.798 453.148,254.777 453.215,254.725 L453.919,254.154 C461.671,247.928 474.621,239.813 482.179,250.154 C484.588,253.449 485.821,257.644 486.844,261.691 L488.64,268.935 C489.802,273.663 490.895,278.418 491.535,283.256 C492.982,294.093 492.254,306.585 485.342,315.272 C482.582,318.746 478.777,321.228 474.532,321.88 C472.164,322.231 469.825,321.797 467.477,321.477 C465.09,321.156 462.791,321.673 460.404,321.425 C456.608,321.022 454.95,325.923 456.369,329.005 C457.135,330.659 458.037,332.086 459.062,333.296 C458.239,334.062 457.452,334.889 456.695,335.757 C454.452,336.533 452.44,338.198 450.934,340.401 C449.717,342.179 449.086,344.113 448.979,346.15 C448.846,346.657 448.731,347.174 448.625,347.701 L446.568,351.302 C446.116,352.092 445.666,352.872 445.214,353.637 C439.98,362.53 434.171,370.059 426.954,377.153 C420.006,383.978 412.464,390.089 405.936,397.411 L405.167,398.28 C399.081,405.199 392.666,413.575 395.048,423.636 C395.661,426.221 399.007,428.082 401.192,426.335 C408.217,420.709 411.755,411.795 417.715,404.97 C423.85,397.938 430.645,391.62 436.797,384.609 C442.616,377.99 447.207,370.493 450.666,362.241 C452.047,363.885 454.059,365.054 456.848,365.509 C461.64,366.284 466.107,363.254 468.196,358.777 C469.539,359.418 470.908,359.997 472.289,360.452 C479.554,362.851 484.125,354.133 481.384,347.691 C479.918,344.237 478.088,341.238 475.815,338.715 C482.918,337.66 490.145,333.7 494.813,328.757 C506.524,316.337 508.134,297.671 505.498,281.074 C504.099,272.274 501.685,263.37 498.549,255.108 C498.004,253.67 497.419,252.223 496.777,250.796 C497.132,250.785 497.496,250.62 497.726,250.299 C499.844,247.176 502.422,244.622 503.994,241.127 C505.442,237.921 507.051,234.674 508.192,231.334 C510.539,224.498 511.69,216.784 512.456,209.556 C514.038,194.758 513.425,180.053 511.325,165.348 C507.751,140.302 499.118,116.333 486.398,95.302 C487.091,94.909 487.755,94.435 488.373,93.875 L488.679,93.587 L489.175,93.103 C492.805,89.559 492.491,82.917 489.175,79.328 L488.128,78.195 C486.801,76.774 485.658,75.647 483.515,74.099 C483.199,73.871 482.876,73.656 482.549,73.455 C483.671,71.219 484.06,68.605 483.279,65.721 C480.557,55.674 467.158,56.029 458.665,60.411 C449.27,51.364 438.851,43.51 427.559,37.15 C400.664,22.0106 370.254,11.4524 340.561,4.9996 Z M479.582,269.627 C474.56,267.858 467.889,271.571 463.375,273.804 C457.653,276.638 452.784,280.826 448.068,285.252 C445.72,287.465 445.299,291.084 445.883,294.176 C445.942,294.486 445.998,294.807 446.066,295.128 C446.689,298.426 450.101,301.022 453.12,300.929 C459.436,300.743 462.445,294.859 466.021,289.874 C466.442,290.681 466.969,291.426 467.621,291.984 L468.062,292.356 C469.546,293.575 471.182,294.549 473.142,294.455 C474.532,294.383 475.863,294 477.091,293.308 C480.158,291.56 481.508,287.279 480.675,283.794 C480.158,281.602 478.969,279.885 477.417,278.696 L477.995,278.269 C479.234,277.339 480.363,276.358 481.243,274.912 L481.442,274.57 L481.365,274.57 C482.324,272.791 481.7,270.371 479.582,269.627 Z" id="Shape" fill="#100D06"></path>
                <path d="M266.467,374.486 C272.91,371.65 278.659,366.92 282.862,360.877 C284.323,358.776 284.702,356.558 284.395,354.529 C284.051,352.247 282.8,350.18 281.094,348.793 C279.382,347.402 277.242,346.715 275.172,347.065 C273.374,347.369 271.584,348.431 270.167,350.635 L269.871,351.075 C267.372,354.723 264.116,357.715 260.406,359.644 C256.831,361.503 252.831,362.371 248.693,361.866 C240.811,360.906 235.378,356.306 229.604,350.061 C228.888,349.272 228.172,348.459 227.452,347.633 C226.998,346.883 226.367,346.402 225.667,346.149 C224.889,345.869 224.01,345.885 223.204,346.188 C222.427,346.481 221.733,347.035 221.267,347.773 C220.824,348.474 220.573,349.341 220.655,350.337 C221.183,356.81 224.319,362.586 228.774,367.122 C233.722,372.16 240.281,375.645 246.456,376.867 C253.259,378.213 260.191,377.249 266.467,374.486 L266.467,374.486 Z M243.247,274.634 C236.009,279.38 224.982,290.448 232.767,302.216 C241.932,312.591 255.127,300.695 261.63,295.315 C267.659,291.145 274.433,301.869 268.839,306.738 C221.853,344.271 202.785,275.875 239.586,269.053 C243.638,268.301 245.143,273.165 243.247,274.634 Z M327.446,230.973 C326.647,220.264 311.53,217.832 310.026,228.429 C308.679,237.922 310.264,246.643 314.228,255.19 C318.014,263.355 327.532,259.545 328.252,252.11 C329.217,242.144 327.944,237.635 327.446,230.973 Z M212.373,226.232 C210.265,223.253 207.222,221.22 203.576,222.369 C192.185,225.961 195.543,243.409 199.543,251.902 C201.717,256.514 208.743,257.684 211.919,253.623 C217.094,247.001 219.573,233.776 212.993,227.252 C212.815,226.915 212.616,226.575 212.373,226.232 Z M314.388,184.112 L312.589,183.772 C307.022,182.733 300.101,181.735 296.163,186.564 C294.075,189.124 293.356,193.883 296.163,196.334 C301.101,200.646 306.56,198.975 312.478,199.34 C317.354,199.642 322.041,200.513 326.738,201.961 C337.043,205.139 345.44,210.94 354.242,217.311 C355.397,218.146 356.575,216.553 356.024,215.387 C350.944,204.65 341.098,195.83 331.235,190.454 C325.972,187.584 320.211,185.204 314.388,184.112 Z M222.757,179.302 L221.38,179.606 C206.392,182.986 186.92,189.738 179.823,205.621 C179.553,207.867 179.838,208.349 180.071,208.663 L180.148,208.768 C180.34,209.036 180.492,209.407 181.395,209.712 C181.645,209.648 181.898,209.58 182.153,209.507 C185.407,208.588 187.981,207.32 190.472,206.005 L193.174,204.569 C196.309,202.911 199.471,201.313 202.822,200.133 C209.974,197.616 217.331,195.843 224.801,194.897 C226.42,194.692 227.98,194.102 229.21,193.091 C230.377,192.132 231.269,190.804 231.676,189.039 C232.203,186.755 232.051,185.025 230.915,182.964 C230.061,181.417 228.839,180.344 227.436,179.728 C226.005,179.1 224.376,178.952 222.757,179.302 Z" id="Shape" fill="#100D06"></path>
            </g>
        </g>
    </g>
</svg>